<?xml version="1.0" encoding="utf-8"?>
<!-- Generator: Adobe Illustrator 27.0.0, SVG Export Plug-In . SVG Version: 6.00 Build 0)  -->
<svg version="1.1" id="Capa_1" xmlns="http://www.w3.org/2000/svg" xmlns:xlink="http://www.w3.org/1999/xlink" x="0px" y="0px"
	 viewBox="0 0 510 170" style="enable-background:new 0 0 510 170;" xml:space="preserve">
<style type="text/css">
	.st0{stroke:#000000;stroke-width:3;stroke-miterlimit:10;}
</style>
<g>
	<path class="st0" d="M39.8,68.8l-6.1,36.3H5l16.5-99h32.7c7.7,0,13.3,0.3,16.8,1c3.5,0.6,7.1,2.2,10.9,4.7s6.7,5.8,8.9,10
		s3.3,8.7,3.3,13.4c0,9.3-3,17.2-9.1,23.7s-14.7,9.8-25.9,9.8L39.8,68.8L39.8,68.8z M43.4,47.6h6.8c10.4,0,15.6-3.5,15.6-10.6
		c0-6.3-4.4-9.5-13.1-9.5h-6L43.4,47.6z"/>
	<path class="st0" d="M140.8,107.7c-11.7,0-21.9-3.8-30.5-11.5c-8.6-7.7-12.9-18.6-12.9-33c0-16.6,4.8-30.7,14.4-42.2
		S134,3.6,149.5,3.6c12.4,0,22.6,4.1,30.6,12.1c8,8.1,12,18.7,12,31.8c0,16.7-4.7,30.9-14.2,42.6C168.4,101.8,156,107.7,140.8,107.7
		L140.8,107.7z M141,84.6c5.1,0,9-2.2,11.7-6.5s4.8-10.7,6.3-19c1.5-8.4,2.3-14,2.3-17c0-5.1-1.2-8.9-3.5-11.5
		c-2.4-2.6-5.5-3.9-9.3-3.9c-7.4,0-12.6,5.1-15.6,15.4c-3,10.3-4.5,19.4-4.5,27.3C128.4,79.6,132.6,84.6,141,84.6z"/>
	<path class="st0" d="M332,6.1l-40.9,99h-25.9l-4.5-59.3l-7,18.3l-16.6,41h-24.3l-11-99h27.6L233,51l0.6,5.5l0.1,3
		c0.2,2.7,0.4,4.7,0.5,5.9c1.3-4.1,2.6-7.9,4.1-11.5l19.6-47.7h23.8l4.6,59.2c1.8-5.6,3.8-11,6-16.4l16.8-42.8L332,6.1L332,6.1z"/>
	<path class="st0" d="M402.4,82.4l-3.8,22.8h-73l16.5-99h71.2l-3.6,21.7h-42.5l-2.6,15.5h35.7l-3.6,21.5H361l-2.9,17.5L402.4,82.4
		L402.4,82.4z"/>
	<path class="st0" d="M484.2,63.6l10.7,41.5h-29.3l-8.7-37.6h-11.7l-6.3,37.6h-28.2l16.5-99h43.2c11.8,0,20.5,2.6,26.1,7.7
		s8.5,12.1,8.5,21C505,49,498.1,58.6,484.2,63.6L484.2,63.6z M448.6,46.9h11.1c10.7,0,16-3.6,16-10.9c0-6.1-4.5-9.1-13.5-9.1H452
		L448.6,46.9L448.6,46.9z"/>
</g>
<g>
	<path d="M131.1,163.6l16.8-24.4V139h-15.4v-5h23.1v3.5l-16.6,24.2v0.2h16.9v5h-24.9L131.1,163.6L131.1,163.6z"/>
	<path d="M233,150.1c0,11-6.7,17.3-15.8,17.3s-15.2-7.1-15.2-16.7s6.4-17.2,15.7-17.2S233,140.7,233,150.1L233,150.1z M208.4,150.6
		c0,6.7,3.4,12,9.1,12s9.1-5.4,9.1-12.3c0-6.2-3.1-12.1-9.1-12.1S208.4,143.8,208.4,150.6L208.4,150.6z"/>
	<path d="M282.1,166.9V134h6.9l8.5,14.1c2.2,3.6,4.1,7.5,5.6,11l0.1,0c-0.4-4.4-0.5-8.6-0.5-13.6V134h5.6v32.9H302l-8.6-14.5
		c-2.1-3.6-4.3-7.6-5.9-11.4l-0.1,0c0.2,4.3,0.3,8.6,0.3,14v11.8L282.1,166.9L282.1,166.9z"/>
	<path d="M377.5,152.3H365v9.7h13.9v5H359V134h19.2v5H365v8.5h12.4L377.5,152.3L377.5,152.3z"/>
</g>
</svg>
